<svg viewBox="0 0 32 32" xmlns="http://www.w3.org/2000/svg"><path d="M29.437 20.305h-.858l-4.867 7.244c-.388.517-1.224.935-1.87.935H10.158c-.645 0-1.482-.418-1.87-.935L3.42 20.305h-.857a.585.585 0 0 1 0-1.168H6.77a5.844 5.844 0 0 1 5.724-4.675c.374 0 .746.038 1.113.11a6.987 6.987 0 0 1 5.314-2.446 7.011 7.011 0 0 1 7.01 7.01h3.507a.585.585 0 0 1 0 1.17zm-10.516-7.01a5.834 5.834 0 0 0-4.865 2.608 4.656 4.656 0 0 0-1.561-.272 4.671 4.671 0 0 0-4.52 3.505h16.788a5.842 5.842 0 0 0-5.842-5.842zm-14.02 7.01l4.673 7.011h12.853l4.674-7.01H4.9zm7.594-9.348c-.292-.292-.584-.583-.584-1.168 0-1.168 1.168-1.168 1.168-2.337 0-.584-.292-.877-.584-1.168-1.098-1.1 0-1.753 1.168 0 .293.291.585.584.585 1.168 0 1.169-1.169 1.169-1.169 2.337 0 .579.287.87.576 1.16 1.761 1.761.008 1.177-1.16.008zM8.99 12.126c-.292-.292-.585-.584-.585-1.169 0-1.168 1.169-1.168 1.169-2.336 0-1.169-1.168-1.169-1.168-2.337 0-.412.145-.824.333-1.184.835-1.154 2.005-1.737 1.184-.03-.196.367-.349.79-.349 1.214 0 1.168 1.169 1.168 1.169 2.337 0 1.168-1.17 1.168-1.17 2.336 0 .59.299.883.594 1.179 1.16 1.158.575 1.743-1.178-.01z"/></svg>