<svg viewBox="0 0 32 32" xmlns="http://www.w3.org/2000/svg"><path d="M13.807 27.771c-6.032-1.133-10.609-6.43-10.609-12.773C3.198 7.83 9.04 2 16.222 2c7.182 0 13.024 5.83 13.024 12.997 0 6.113-4.25 11.253-9.955 12.634l.705 1.543a.582.582 0 0 1-.532.826.584.584 0 0 1-.532-.341l-.822-1.8a13.104 13.104 0 0 1-3.095.08l-.573 1.256a.584.584 0 0 1-1.065-.484l.43-.94zm.5-1.097l1.63-3.569-2.617-5.728a3.476 3.476 0 0 1-2.096-.097 3.402 3.402 0 0 1-1.944-1.808l-2.385-5.22a.583.583 0 0 1 .289-.774.585.585 0 0 1 .775.289l2.392 5.237.001.002c.25.548.71.973 1.276 1.179a2.303 2.303 0 0 0 1.759-.068c1.144-.521 1.661-1.856 1.162-2.988l-.013-.027-2.392-5.237a.583.583 0 0 1 .29-.773.585.585 0 0 1 .774.289l2.38 5.209.013.027c.705 1.544.156 3.347-1.217 4.275L16.58 21.7l2.408-5.272a3.458 3.458 0 0 1-1.3-1.643 3.389 3.389 0 0 1 .095-2.655l1.287-2.82a.594.594 0 0 1 .076-.121c.883-1.496 2.789-2.113 4.419-1.373 1.626.74 2.41 2.577 1.864 4.221a.582.582 0 0 1-.045.145l-.082.18a3.483 3.483 0 0 1-.011.025l-1.198 2.622-.007.015a3.448 3.448 0 0 1-3.142 2.003c-.302 0-.602-.04-.892-.116l-2.829 6.194 1.573 3.442c5.304-1.176 9.281-5.908 9.281-11.55 0-6.523-5.317-11.83-11.855-11.83-6.537 0-11.855 5.307-11.855 11.83 0 5.874 4.31 10.76 9.94 11.677zm1.225.134a12.01 12.01 0 0 0 2.07-.06l-1.022-2.236-1.048 2.296zm-3.087-12.171a.584.584 0 0 1-.532-.341L9.52 9.058a.583.583 0 0 1 .29-.773.585.585 0 0 1 .774.29l2.393 5.236a.582.582 0 0 1-.532.825zm11.778-2.726l.007-.015c.52-1.139.003-2.492-1.15-3.018-1.154-.526-2.517-.024-3.036 1.113l-1.207 2.644-.008.015a2.236 2.236 0 0 0-.048 1.721 2.3 2.3 0 0 0 1.138 1.25.59.59 0 0 1 .131.059c1.136.476 2.452-.02 2.966-1.127a.585.585 0 0 1 .006-.014l1.201-2.628z"/></svg>