<svg width="37" height="32" viewBox="0 0 37 32">
  <path d="M35.8874121,21.3101326 L34.764976,21.3101326 L28.4037413,30.7775373 C27.8974998,31.4525261 26.804079,32 25.9603431,32 L10.6898674,32 C9.84689503,32 8.75271074,31.4525261 8.24646916,30.7775373 L1.88447092,21.3101326 L0.76356196,21.3101326 C0.342075758,21.3101326 0,20.9680568 0,20.5465706 C0,20.1250844 0.342075758,19.7830086 0.76356196,19.7830086 L2.28457738,19.7830086 C2.28686807,19.7830086 2.28763163,19.7822451 2.28992232,19.7822451 L6.26120807,19.7822451 C6.96903001,16.2973483 10.049239,13.6737494 13.7433517,13.6737494 C14.2411941,13.6737494 14.726056,13.7249081 15.1971737,13.8165355 C16.87701,11.8618169 19.3624042,10.6202651 22.1417697,10.6202651 C27.2026584,10.6202651 31.3045132,14.7228835 31.3045132,19.7830086 L34.3587611,19.7830086 C34.3602882,19.7830086 34.3618153,19.7837722 34.364106,19.7837722 L35.8874121,19.7837722 C36.3088983,19.7837722 36.6509741,20.125848 36.6509741,20.5473342 C36.6509741,20.9688204 36.3088983,21.3101326 35.8874121,21.3101326 Z M22.1425333,12.1466255 C19.4883919,12.1466255 17.1526559,13.501948 15.7843528,15.5574568 C15.1452515,15.3306789 14.4603364,15.2008733 13.7441153,15.2008733 C10.8983198,15.2008733 8.51447941,17.1494834 7.83567283,19.7822451 L29.7781529,19.7822451 L29.7781529,19.7822451 C29.7781529,15.5650924 26.359686,12.1466255 22.1425333,12.1466255 Z M3.8178098,21.3101326 L9.92630548,30.4728761 L26.7246686,30.4728761 L32.8331643,21.3101326 L3.8178098,21.3101326 Z M13.7441153,9.09314121 C13.3623343,8.71136023 12.9805533,8.32957925 12.9805533,7.56601729 C12.9805533,6.03889337 14.5076772,6.03889337 14.5076772,4.51176945 C14.5076772,3.74820749 14.1258963,3.36642651 13.7441153,2.98464553 C12.3086188,1.54838549 13.7441153,0.693959655 15.2712392,2.98464553 C15.6530202,3.36642651 16.0348012,3.74820749 16.0348012,4.51176945 C16.0348012,6.03889337 14.5076772,6.03889337 14.5076772,7.56601729 C14.5076772,8.32194363 14.8818226,8.70372461 15.2597858,9.08168778 C17.5619251,11.3838271 15.2712392,10.6202651 13.7441153,9.09314121 Z M9.16274352,10.6202651 C8.78096254,10.2384842 8.39918156,9.85670317 8.39918156,9.09314121 C8.39918156,7.56601729 9.92630548,7.56601729 9.92630548,6.03889337 C9.92630548,4.51176945 8.39918156,4.51176945 8.39918156,2.98464553 C8.39918156,2.44633435 8.58854492,1.90802317 8.83441187,1.43690544 C9.92630548,-0.0696023048 11.4534294,-0.833164264 10.3813884,1.39796378 C10.1263587,1.87824425 9.92630548,2.43182667 9.92630548,2.98464553 C9.92630548,4.51176945 11.4534294,4.51176945 11.4534294,6.03889337 C11.4534294,7.56601729 9.92630548,7.56601729 9.92630548,9.09314121 C9.92630548,9.86433879 10.3164856,10.2461198 10.7020844,10.6324821 C12.2169914,12.147389 11.4534294,12.910951 9.16274352,10.6202651 Z"/>
</svg>
