<svg width="28" height="26" viewBox="0 0 32 32">
  <path d="M27.4772,18.3783 L27.4849,18.3783 L27.4149,18.4469 C27.3407,18.5225 27.2644,18.5953 27.1874,18.6688 L17.022,28.5913 C16.4578,29.1198 15.5429,29.1198 14.9787,28.5913 L4.8182,18.6737 C4.7384,18.5974 4.6586,18.5225 4.5823,18.4434 L4.5158,18.3783 L4.5235,18.3783 C2.9632,16.7452 2,14.5367 2,12.1 C2,7.074 6.074,3 11.1,3 C12.906,3 14.5846,3.5327 16,4.4399 C17.4154,3.5327 19.094,3 20.9,3 C25.9253,3 30,7.074 30,12.1 C30,14.5367 29.0368,16.7452 27.4772,18.3783 Z M20.9,4.4 C19.0387,4.4 17.3314,5.0608 16,6.1605 C14.6686,5.0601 12.9613,4.4 11.1,4.4 C6.8475,4.4 3.4,7.8475 3.4,12.1 C3.4,14.4989 4.4976,16.6416 6.2182,18.0535 L16,27.4482 L25.7839,18.0521 C27.5031,16.6395 28.6,14.4982 28.6,12.1 C28.6,7.8475 25.1525,4.4 20.9,4.4 Z"/>
</svg>
