<svg width="32" height="29" viewBox="0 0 32 29"><path d="M30.557 18.479l-.745.015-2.232-2.464v11.477a2.977 2.977 0 0 1-2.977 2.977H6.743a2.977 2.977 0 0 1-2.977-2.977V16.12l-2.233 2.45-.744.006c-.821 0-1.036-.488-.48-1.092l4.208-4.56c.068-.078.133-.157.21-.227l9.033-9.792c1.115-1.208 2.92-1.205 4.03.007l13.25 14.462c.555.606.338 1.101-.483 1.106zM5.254 27.508c0 .822.666 1.488 1.489 1.488h17.86c.822 0 1.489-.666 1.489-1.488v-13.12l-2.273-2.509H7.628l-2.374 2.606v13.023zM16.736 4.062c-.547-.615-1.434-.617-1.981-.004l-7.127 7.821H23.82l-7.084-7.817zm-3.296 13.77h4.465c.822 0 1.489.668 1.489 1.49v9.674h-1.489V19.32H13.44v9.675h-1.488V19.32c0-.821.666-1.488 1.488-1.488z"/></svg>