<svg xmlns="http://www.w3.org/2000/svg" width="48" height="48" viewBox="0 0 48 48"><path d="M29.547 48a1 1 0 0 1-.911-.585l-9.981-21.889a1 1 0 1 1 1.82-.83l9.982 21.889a1 1 0 0 1-.91 1.415zM13.047 23.709a.999.999 0 0 1-.91-.585l-4.094-8.979a1 1 0 1 1 1.82-.83l4.094 8.979a1 1 0 0 1-.91 1.415zM17.538 21.663a1 1 0 0 1-.91-.585L12.534 12.1a1 1 0 1 1 1.82-.83l4.094 8.978a1 1 0 0 1-.91 1.415zM22.027 19.617c-.379 0-.743-.218-.911-.585l-4.093-8.978a1 1 0 0 1 1.821-.83l4.093 8.978a1 1 0 0 1-.91 1.415z"/><path d="M17.503 26.563a5.93 5.93 0 0 1-2.054-.369 5.824 5.824 0 0 1-3.313-3.071 1 1 0 0 1 1.821-.829 3.839 3.839 0 0 0 2.184 2.023c.982.362 2.05.32 3.009-.117 1.974-.9 2.856-3.219 1.967-5.17a1 1 0 0 1 1.821-.829c1.346 2.954.019 6.461-2.958 7.82a5.963 5.963 0 0 1-2.477.542z"/><g><path d="M20.043 47.205a1 1 0 0 1-.91-1.415l9.979-21.892a1 1 0 1 1 1.82.829L20.954 46.62a1 1 0 0 1-.911.585zM36.542 22.911a1 1 0 0 1-.909-1.415l2.221-4.871a1 1 0 1 1 1.82.83l-2.221 4.871a1 1 0 0 1-.911.585zM27.562 18.817a1 1 0 0 1-.909-1.415l2.219-4.87a1 1 0 0 1 1.82.829l-2.219 4.87a1 1 0 0 1-.911.586z"/><path d="M32.078 25.761a5.937 5.937 0 0 1-2.47-.539 5.926 5.926 0 0 1-3.101-3.306 5.82 5.82 0 0 1 .145-4.514 1 1 0 0 1 1.82.83c-.431.943-.464 2-.095 2.976a3.935 3.935 0 0 0 2.061 2.195c1.975.9 4.306.045 5.195-1.906a1 1 0 1 1 1.82.83c-.984 2.158-3.129 3.434-5.375 3.434zM38.608 18.379a1 1 0 0 1-.909-1.415c.889-1.952.006-4.272-1.968-5.173s-4.305-.042-5.193 1.908a1 1 0 0 1-1.82-.829c1.347-2.955 4.864-4.255 7.843-2.899 2.978 1.358 4.305 4.867 2.959 7.822a1.001 1.001 0 0 1-.912.586z"/></g><path d="M24 44.563c-12.286 0-22.281-9.995-22.281-22.281S11.714 0 24 0s22.281 9.995 22.281 22.281S36.286 44.563 24 44.563zM24 2C12.817 2 3.719 11.098 3.719 22.281c0 11.184 9.098 20.281 20.281 20.281 11.184 0 20.281-9.098 20.281-20.281C44.281 11.098 35.184 2 24 2z"/></svg>