<svg width="119" height="126" viewBox="0 0 119 126"><path d="M46.442 69.197c-1.312.35-2.667.53-4.032.53a15.627 15.627 0 0 1-5.403-.968 15.307 15.307 0 0 1-8.747-8.136L17.526 37.13a2.623 2.623 0 0 1 1.302-3.478 2.633 2.633 0 0 1 3.486 1.299L33.08 58.519a2.662 2.662 0 0 1 .004.008 10.09 10.09 0 0 0 5.742 5.305c2.584.95 5.393.84 7.915-.307 5.15-2.343 7.475-8.35 5.231-13.445l-.06-.121-10.766-23.567a2.624 2.624 0 0 1 1.304-3.48 2.634 2.634 0 0 1 3.486 1.301l10.709 23.44c.021.041.041.083.06.125 3.172 6.946.701 15.058-5.478 19.237l25.257 55.27a2.62 2.62 0 0 1-.181 2.51A2.632 2.632 0 0 1 74.09 126a2.63 2.63 0 0 1-2.396-1.536L46.442 69.197zm-3.94-12.332a2.63 2.63 0 0 1-2.394-1.535L29.34 31.763a2.623 2.623 0 0 1 1.303-3.479 2.633 2.633 0 0 1 3.485 1.3L44.896 53.15a2.62 2.62 0 0 1-.181 2.51 2.632 2.632 0 0 1-2.213 1.204z"/><path d="M100.308 46.742l-5.39 11.797-.03.07c-2.59 5.664-8.231 9.014-14.14 9.014-1.358 0-2.708-.178-4.014-.525l-25.246 55.28a2.63 2.63 0 0 1-2.397 1.535 2.632 2.632 0 0 1-2.213-1.205 2.62 2.62 0 0 1-.18-2.51l25.249-55.276a15.561 15.561 0 0 1-5.853-7.392 15.249 15.249 0 0 1 .43-11.95l5.791-12.683c.094-.2.21-.383.343-.547 3.973-6.73 12.548-9.508 19.883-6.176 7.32 3.331 10.848 11.594 8.389 18.993a2.62 2.62 0 0 1-.2.652l-.37.808a15.662 15.662 0 0 1-.052.115zm-4.803-2.144l.03-.067c2.338-5.124.015-11.215-5.177-13.58-5.193-2.365-11.324-.11-13.66 5.009l-.001.002-5.431 11.894-.034.071a10.064 10.064 0 0 0-.219 7.744 10.337 10.337 0 0 0 5.122 5.621c.208.065.407.155.592.268 5.11 2.142 11.03-.087 13.345-5.07a2.63 2.63 0 0 1 .028-.063l5.405-11.829z"/><path d="M59.5 116.978C27.182 116.978.891 90.74.891 58.49S27.182 0 59.5 0s58.609 26.237 58.609 58.488c0 32.25-26.291 58.49-58.609 58.49zm0-111.728c-29.416 0-53.348 23.882-53.348 53.238 0 29.358 23.932 53.237 53.348 53.237 29.419 0 53.348-23.882 53.348-53.237 0-29.356-23.93-53.238-53.348-53.238z"/></svg>
