<svg xmlns="http://www.w3.org/2000/svg" width="48" height="48" viewBox="0 0 48 48"><path d="M25.572 5.594a1 1 0 0 1-1-1c0-1.43-1.164-2.594-2.593-2.594s-2.593 1.164-2.593 2.594a1 1 0 0 1-2 0c0-2.533 2.06-4.594 4.593-4.594s4.593 2.061 4.593 4.594a1 1 0 0 1-1 1zM37.682 44.167h-.505c-.312 0-.605-.146-.795-.393l-.918-1.202H21.972c-.192 0-.381-.056-.543-.16l-10.92-7.057a.863.863 0 0 1-.109-.082c-.806-.692-1.328-1.94-.569-3.045a2.343 2.343 0 0 1 1.982-1.042c.764 0 1.382.318 1.499.383 2.552 1.202 7.19 3.198 8.54 3.315.772.065 2.346.15 3.869.135a62.138 62.138 0 0 0-2.724-.706 1.362 1.362 0 0 1-.109-.032c-1.22-.437-1.509-1.415-1.387-2.12.171-.983 1.107-1.784 2.087-1.784 1.403 0 3.298 0 7.13.029 2.206.018 9.309 1.855 9.309 3.354a.969.969 0 0 1-.01.142l-1.344 9.407a1.001 1.001 0 0 1-.991.858zm-15.415-3.595h13.691c.312 0 .605.146.795.393l.196.258.981-6.871c-1.352-.605-4.592-1.925-7.229-1.945-3.824-.029-5.715-.029-7.114-.029a.096.096 0 0 0-.023.016c6.237 1.47 6.639 2.233 6.832 2.602.187.356.174.771-.031 1.11-.325.536-.853.915-4.709.915-1.594 0-3.146-.071-3.975-.143-2.151-.186-8.555-3.186-9.278-3.527-.12-.062-.364-.163-.589-.163-.16 0-.244.044-.334.175-.014.08.082.247.194.365l10.593 6.844z"/><path d="M45.695 48c-.076 0-.153-.009-.229-.026l-8.078-1.902a1.002 1.002 0 0 1-.761-1.114l1.748-12.293a1 1 0 0 1 1.149-.847l6.33 1.02a1 1 0 0 1 .841.987V47a1 1 0 0 1-1 1zm-6.959-3.666l5.959 1.403V34.676l-4.483-.722-1.476 10.38zM35.77 29.066H8.19a1 1 0 0 1-1-1v-.174H5.567a1 1 0 0 1-1-1v-.908H2.304a1 1 0 0 1-1-1V21.55a1 1 0 0 1 1-1h39.352a1 1 0 0 1 1 1v3.435a1 1 0 0 1-1 1h-2.264v.908a1 1 0 0 1-1 1H36.77v.174a1 1 0 0 1-1 .999zm-26.58-2h25.58v-.174a1 1 0 0 1 1-1h1.623v-.908a1 1 0 0 1 1-1h2.264V22.55H3.304v1.435h2.263a1 1 0 0 1 1 1v.908H8.19a1 1 0 0 1 1 1v.173z"/><path d="M5.01 22.55a1 1 0 0 1-1-1c.007-9.901 8.068-17.956 17.969-17.956 9.902 0 17.962 8.055 17.968 17.956a1 1 0 0 1-.999 1h-.001a1 1 0 0 1-1-1c-.006-8.798-7.169-15.957-15.968-15.957S6.016 12.752 6.01 21.55a1 1 0 0 1-1 1z"/></svg>