<?xml version="1.0" encoding="UTF-8"?>
<svg width="64px" height="32px" viewBox="0 0 64 32" version="1.1" xmlns="http://www.w3.org/2000/svg" xmlns:xlink="http://www.w3.org/1999/xlink">
    <!-- Generator: Sketch 48.2 (47327) - http://www.bohemiancoding.com/sketch -->
    <title>logo</title>
    <desc>Created with Sketch.</desc>
    <defs>
        <linearGradient x1="0%" y1="0%" x2="100%" y2="100%" id="linearGradient-1">
            <stop stop-color="#FF4D00" offset="0%"></stop>
            <stop stop-color="#FF7832" offset="100%"></stop>
        </linearGradient>
    </defs>
    <g id="Page-1" stroke="none" stroke-width="1" fill="none" fill-rule="evenodd">
        <g id="logo" fill="url(#linearGradient-1)">
            <path d="M6.737,19.503 L11.259,19.503 L11.259,22.019 L4,22.019 L4,10.119 L6.737,10.119 L6.737,19.503 Z M15.319,22.189 C13.738,22.189 12.055,21.05 12.055,18.245 L12.055,13.179 L14.758,13.179 L14.758,18.058 C14.758,19.401 15.523,19.843 16.356,19.843 C17.444,19.843 18.107,18.755 18.073,18.313 L18.073,13.179 L20.759,13.179 L20.759,22.019 L18.073,22.019 L18.073,20.421 C17.903,20.931 16.968,22.189 15.319,22.189 Z M27.233,13.009 C28.814,13.009 30.497,14.148 30.497,16.953 L30.497,22.019 L27.794,22.019 L27.794,17.14 C27.794,15.797 27.029,15.355 26.196,15.355 C25.108,15.355 24.445,16.443 24.479,16.885 L24.479,22.019 L21.793,22.019 L21.793,13.179 L24.479,13.179 L24.479,14.777 C24.649,14.267 25.584,13.009 27.233,13.009 Z M35.713,13.009 C37.328,13.009 38.671,13.689 39.521,15.117 L37.481,16.086 C37.022,15.712 36.682,15.372 35.747,15.372 C34.727,15.372 33.673,16.154 33.673,17.616 C33.673,19.044 34.727,19.826 35.747,19.826 C36.682,19.826 37.022,19.52 37.481,19.146 L39.555,20.115 C38.671,21.543 37.362,22.189 35.713,22.189 C33.741,22.189 31.089,20.744 31.089,17.616 C31.089,14.522 33.741,13.009 35.713,13.009 Z M45.672,13.009 C47.253,13.009 48.936,14.148 48.936,16.953 L48.936,22.019 L46.233,22.019 L46.233,17.14 C46.233,15.797 45.468,15.355 44.635,15.355 C43.598,15.355 42.952,16.341 42.918,16.817 L42.918,22.019 L40.232,22.019 L40.232,10 L42.918,10 L42.918,14.777 C43.088,14.267 44.023,13.009 45.672,13.009 Z M53.8460001,22.189 C51.9080001,22.189 49.5280001,20.744 49.5280001,17.599 C49.5280001,14.454 51.9080001,13.009 53.8460001,13.009 C55.3420001,13.009 56.0900001,13.859 56.2770001,14.165 L56.3960001,14.165 L56.3960001,13.179 L59.0820001,13.179 L59.0820001,22.019 L56.3960001,22.019 L56.3960001,21.033 L56.2770001,21.033 C56.0900001,21.339 55.3420001,22.189 53.8460001,22.189 Z M54.2710001,19.826 C55.3760001,19.826 56.4470001,19.061 56.4470001,17.599 C56.4470001,16.137 55.3760001,15.372 54.2710001,15.372 C53.1490001,15.372 52.1120001,16.137 52.1120001,17.599 C52.1120001,19.061 53.1490001,19.826 54.2710001,19.826 Z" id="Luncha"></path>
        </g>
    </g>
</svg>