<svg viewBox="0 0 32 32" xmlns="http://www.w3.org/2000/svg"><path d="M29.294 17.718l-.666.014-1.993-2.201v10.251a2.66 2.66 0 0 1-2.66 2.66H8.024a2.66 2.66 0 0 1-2.66-2.66v-10.17L3.37 17.8l-.664.005c-.734 0-.926-.436-.43-.975l3.76-4.073c.06-.07.118-.14.187-.203l8.069-8.747c.995-1.079 2.608-1.076 3.6.007L29.724 16.73c.496.542.302.984-.431.988zM6.693 25.783c0 .734.595 1.33 1.33 1.33h15.953a1.33 1.33 0 0 0 1.33-1.33V14.064l-2.03-2.24H8.812l-2.12 2.327v11.632zM16.949 4.841c-.489-.55-1.281-.551-1.77-.004l-6.366 6.986h14.463L16.95 4.841zm-2.944 12.3h3.988c.735 0 1.33.596 1.33 1.33v8.641h-1.33V18.47h-3.988v8.641h-1.33V18.47c0-.734.596-1.33 1.33-1.33z"/></svg>