<svg viewBox="0 0 32 32" xmlns="http://www.w3.org/2000/svg"><path d="M17.156 5.263a.583.583 0 0 1-.583-.583c0-.834-.679-1.513-1.513-1.513-.833 0-1.512.679-1.512 1.513a.583.583 0 1 1-1.167 0A2.682 2.682 0 0 1 15.061 2a2.682 2.682 0 0 1 2.679 2.68.583.583 0 0 1-.584.583zM4.595 13.988c.308-5.506 4.886-9.892 10.465-9.892 5.58 0 10.158 4.386 10.465 9.892h1.014c.322 0 .583.26.583.583v2.004a.583.583 0 0 1-.583.583h-1.321v.53a.583.583 0 0 1-.583.583h-.947v.101a.583.583 0 0 1-.583.583H7.017a.583.583 0 0 1-.583-.583v-.102h-.947a.583.583 0 0 1-.584-.583v-.53h-1.32A.583.583 0 0 1 3 16.574v-2.003c0-.322.261-.583.583-.583h1.012zm1.169 0h18.593c-.306-4.862-4.36-8.725-9.297-8.725-4.936 0-8.99 3.863-9.296 8.725zm17.915 13.72a.588.588 0 0 1-.217-.173l-.535-.701h-7.87a.588.588 0 0 1-.317-.094l-6.37-4.116a.503.503 0 0 1-.064-.048c-.47-.404-.775-1.132-.332-1.776a1.367 1.367 0 0 1 1.156-.608c.446 0 .806.185.875.223 1.488.701 4.194 1.866 4.981 1.934.45.038 1.369.087 2.257.079a36.247 36.247 0 0 0-1.589-.412.795.795 0 0 1-.063-.019c-.712-.255-.88-.825-.81-1.236.1-.574.646-1.041 1.218-1.041.818 0 1.924 0 4.16.017.903.007 3.216.538 4.513 1.156a.583.583 0 0 1 .623-.332l3.692.595a.582.582 0 0 1 .491.575v7.686a.583.583 0 0 1-.583.583.613.613 0 0 1-.134-.015l-4.712-1.11a.585.585 0 0 1-.444-.65l.074-.516zm-8.45-2.041h7.986c.182 0 .353.085.464.23l.114.15.572-4.008c-.788-.353-2.678-1.123-4.217-1.135-2.23-.017-3.334-.017-4.15-.017a.056.056 0 0 0-.013.01c3.638.857 3.873 1.302 3.985 1.517.11.208.102.45-.018.648-.19.313-.497.534-2.747.534-.93 0-1.835-.042-2.318-.084-1.255-.108-4.99-1.858-5.413-2.057a.828.828 0 0 0-.343-.095c-.094 0-.143.025-.195.102-.008.046.048.144.113.213l6.18 3.992zm9.606 2.194l3.476.819v-6.452l-2.615-.422-.86 6.055zM7.6 17.788h14.922v-.101c0-.322.261-.583.583-.583h.947v-.53c0-.322.261-.583.583-.583h1.32v-.837H4.168v.837h1.32c.322 0 .583.261.583.584v.53h.947c.322 0 .583.26.583.583v.1z"/></svg>